<mxfile host="65bd71144e">
    <diagram id="UapBc18WZZKOn2hyYe8o" name="Page-1">
        <mxGraphModel dx="1295" dy="738" grid="1" gridSize="10" guides="1" tooltips="1" connect="1" arrows="1" fold="1" page="1" pageScale="1" pageWidth="827" pageHeight="1169" math="0" shadow="0">
            <root>
                <mxCell id="0"/>
                <mxCell id="1" parent="0"/>
                <mxCell id="2" value="App" style="rounded=0;whiteSpace=wrap;html=1;fillColor=#f5f5f5;fontColor=#333333;strokeColor=#666666;" parent="1" vertex="1">
                    <mxGeometry x="350" y="350" width="120" height="60" as="geometry"/>
                </mxCell>
                <mxCell id="3" value="User" style="rounded=0;whiteSpace=wrap;html=1;fillColor=#f5f5f5;fontColor=#333333;strokeColor=#666666;" parent="1" vertex="1">
                    <mxGeometry x="260" y="440" width="120" height="60" as="geometry"/>
                </mxCell>
                <mxCell id="4" value="Home" style="rounded=0;whiteSpace=wrap;html=1;fillColor=#f5f5f5;fontColor=#333333;strokeColor=#666666;" parent="1" vertex="1">
                    <mxGeometry x="460" y="440" width="120" height="60" as="geometry"/>
                </mxCell>
                <mxCell id="5" value="UserDetails" style="rounded=0;whiteSpace=wrap;html=1;fillColor=#f5f5f5;fontColor=#333333;strokeColor=#666666;" parent="1" vertex="1">
                    <mxGeometry x="260" y="550" width="120" height="60" as="geometry"/>
                </mxCell>
                <mxCell id="6" value="" style="endArrow=classic;html=1;exitX=0;exitY=1;exitDx=0;exitDy=0;entryX=0.5;entryY=0;entryDx=0;entryDy=0;fillColor=#f8cecc;strokeColor=#b85450;" parent="1" source="2" target="3" edge="1">
                    <mxGeometry width="50" height="50" relative="1" as="geometry">
                        <mxPoint x="390" y="620" as="sourcePoint"/>
                        <mxPoint x="440" y="570" as="targetPoint"/>
                    </mxGeometry>
                </mxCell>
                <mxCell id="7" value="" style="endArrow=classic;html=1;exitX=1;exitY=1;exitDx=0;exitDy=0;entryX=0.25;entryY=0;entryDx=0;entryDy=0;fillColor=#f8cecc;strokeColor=#b85450;" parent="1" source="2" target="4" edge="1">
                    <mxGeometry width="50" height="50" relative="1" as="geometry">
                        <mxPoint x="360" y="420" as="sourcePoint"/>
                        <mxPoint x="330" y="450" as="targetPoint"/>
                    </mxGeometry>
                </mxCell>
                <mxCell id="8" value="" style="endArrow=classic;html=1;exitX=0.5;exitY=1;exitDx=0;exitDy=0;entryX=0.5;entryY=0;entryDx=0;entryDy=0;fillColor=#f8cecc;strokeColor=#b85450;" parent="1" source="3" target="5" edge="1">
                    <mxGeometry width="50" height="50" relative="1" as="geometry">
                        <mxPoint x="370" y="430" as="sourcePoint"/>
                        <mxPoint x="340" y="460" as="targetPoint"/>
                    </mxGeometry>
                </mxCell>
                <mxCell id="9" value="Context&amp;nbsp;" style="whiteSpace=wrap;html=1;aspect=fixed;" parent="1" vertex="1">
                    <mxGeometry x="70" y="360" width="140" height="140" as="geometry"/>
                </mxCell>
                <mxCell id="10" value="&lt;font color=&quot;#00cc00&quot;&gt;DATA&lt;/font&gt;" style="text;html=1;align=center;verticalAlign=middle;resizable=0;points=[];autosize=1;strokeColor=none;fillColor=none;" parent="1" vertex="1">
                    <mxGeometry x="115" y="440" width="50" height="30" as="geometry"/>
                </mxCell>
                <mxCell id="14" value="" style="endArrow=classic;html=1;fontColor=#00CC00;exitX=0.459;exitY=1.009;exitDx=0;exitDy=0;fillColor=#d5e8d4;strokeColor=#82b366;exitPerimeter=0;entryX=0;entryY=0.75;entryDx=0;entryDy=0;" parent="1" source="9" edge="1" target="3">
                    <mxGeometry width="50" height="50" relative="1" as="geometry">
                        <mxPoint x="410" y="580" as="sourcePoint"/>
                        <mxPoint x="260" y="600" as="targetPoint"/>
                        <Array as="points">
                            <mxPoint x="160" y="550"/>
                        </Array>
                    </mxGeometry>
                </mxCell>
            </root>
        </mxGraphModel>
    </diagram>
</mxfile>